<?xml version="1.0" standalone="no"?>
<!DOCTYPE svg PUBLIC "-//W3C//DTD SVG 20010904//EN"
 "http://www.w3.org/TR/2001/REC-SVG-20010904/DTD/svg10.dtd">
<svg version="1.0" xmlns="http://www.w3.org/2000/svg"
 width="200.000000pt" height="200.000000pt" viewBox="0 0 200.000000 200.000000"
 preserveAspectRatio="xMidYMid meet">
<metadata>
Created by potrace 1.14, written by Peter Selinger 2001-2017
</metadata>
<g transform="translate(0.000000,200.000000) scale(0.100000,-0.100000)"
fill="#000000" stroke="none">
<path d="M899 1766 c-2 -2 -40 -6 -84 -10 -115 -9 -118 -9 -250 -54 -197 -66
-279 -109 -365 -194 -83 -81 -128 -140 -166 -220 -22 -47 -24 -65 -23 -160 3
-212 52 -381 131 -453 143 -131 320 -230 483 -271 17 -4 32 -8 35 -9 3 -1 25
-7 50 -14 25 -6 68 -19 95 -27 28 -9 59 -18 70 -20 39 -9 255 -11 297 -4 24 5
68 11 98 15 71 9 222 66 331 125 96 52 248 166 277 208 36 51 79 137 96 192
19 63 26 221 13 295 -13 74 -91 227 -149 290 -88 97 -243 187 -403 236 -233
71 -234 71 -386 75 -80 2 -148 2 -150 0z m-236 -477 c58 -29 77 -48 77 -76 0
-34 -31 -59 -89 -72 -43 -9 -57 -8 -81 4 -17 9 -30 12 -30 8 0 -4 -13 6 -30
22 -44 42 -41 71 14 113 36 28 84 28 139 1z m815 -46 c84 -82 41 -154 -82
-139 -47 6 -63 14 -91 42 -19 19 -35 44 -35 54 0 26 33 58 67 66 16 3 33 7 38
8 20 5 87 -15 103 -31z m-768 -488 c94 -32 332 -68 405 -62 66 6 206 37 273
61 23 8 42 11 42 6 0 -14 -93 -53 -244 -100 -96 -31 -200 -25 -326 17 -58 19
-127 45 -155 58 -27 12 -60 25 -72 29 -13 4 -23 12 -23 18 0 6 7 7 18 2 9 -4
46 -17 82 -29z"/>
</g>
</svg>
